<?xml version="1.0" encoding="UTF-8" standalone="no"?>
<svg width="211.667mm" height="141.111mm"
 viewBox="0 0 600 400"
 xmlns="http://www.w3.org/2000/svg" xmlns:xlink="http://www.w3.org/1999/xlink"  version="1.2" baseProfile="tiny">
<title>Closed B-Spline Drawing</title>
<desc>Closed B-spline with draggable points</desc>
<defs>
</defs>
<g fill="none" stroke="black" stroke-width="1" fill-rule="evenodd" stroke-linecap="square" stroke-linejoin="bevel" >

<g fill="none" stroke="#000000" stroke-opacity="1" stroke-width="2" stroke-linecap="square" stroke-linejoin="bevel" transform="matrix(1,0,0,1,0,0)"
font-family="MS Shell Dlg 2" font-size="7.8" font-weight="400" font-style="normal" 
>
<path vector-effect="none" fill-rule="evenodd" d="M359,130 L377.583,126.212 L395.418,121.26 L411.765,116.14 L425.885,111.851 L437.038,109.389 L444.485,109.752 L447.502,113.923 L446.19,122.176 L441.895,133.713 L436.065,147.647 L430.146,163.091 L425.586,179.159 L423.823,194.969 L425.566,209.959 L430.361,224.078 L437.646,237.321 L446.861,249.684 L457.442,261.163 L468.831,271.754 L480.464,281.452 L491.782,290.254 L502.222,298.154 L511.223,305.149 L518.225,311.234 L522.739,316.412 L524.729,320.722 L524.328,324.216 L521.666,326.949 L516.877,328.975 L510.092,330.346 L501.444,331.116 L491.066,331.339 L479.089,331.067 L465.645,330.355 L450.868,329.257 L434.888,327.824 L417.84,326.112 L399.853,324.173 L381.062,322.06 L361.598,319.829 L341.593,317.531 L321.18,315.22 L300.491,312.95 L279.658,310.774 L258.814,308.746 L238.09,306.919 L217.62,305.347 L197.534,304.083 L177.984,303.144 L159.21,302.357 L141.482,301.492 L125.069,300.317 L110.239,298.601 L97.2641,296.115 L86.4116,292.625 L77.9515,287.903 L72.1531,281.715 L69.2777,273.836 L69.2158,264.207 L71.3441,253.007 L75.001,240.432 L79.5251,226.676 L84.2549,211.936 L88.529,196.407 L91.6859,180.285 L93.1674,163.77 L93.0451,147.094 L91.6282,130.501 L89.2268,114.236 L86.1505,98.5418 L82.7093,83.6631 L79.2129,69.8435 L75.9711,57.3271 L73.2938,46.3579 L71.4909,37.1798 L70.872,30.0368 L71.7305,25.1537 L74.1467,22.5068 L78.052,21.8997 L83.3752,23.1322 L90.0448,26.0042 L97.9897,30.3158 L107.138,35.8669 L117.419,42.4573 L128.761,49.8871 L141.093,57.9562 L154.343,66.4644 L168.44,75.2119 L183.313,83.9984 L198.89,92.6239 L215.1,100.888 L231.871,108.592 L249.133,115.534 L266.813,121.515 L284.841,126.335 L303.145,129.793 L321.654,131.69 L340.296,131.826 L359,130"/>
<circle cx="359" cy="130" r="3"/>
<circle cx="447" cy="112" r="3"/>
<circle cx="424" cy="190" r="3"/>
<circle cx="519" cy="312" r="3"/>
<circle cx="196" cy="304" r="3"/>
<circle cx="70" cy="277" r="3"/>
<circle cx="92" cy="178" r="3"/>
<circle cx="71" cy="28" r="3"/>
<circle cx="459" cy="437" r="3"/>
</g>
</g>
</svg>
